<?xml version="1.0" encoding="UTF-8"?>
<svg id="Capa_1" data-name="Capa 1" xmlns="http://www.w3.org/2000/svg" viewBox="0 0 144.02 135.76">
  <defs>
    <style>
      .cls-1 {
        fill: #e7741f;
      }

      .cls-2 {
        fill: #5e6257;
      }

      .cls-3 {
        fill: #fefdfd;
      }
    </style>
  </defs>
  <g>
    <path class="cls-3" d="M70.09,23.3c-.15-.83-2.08-1.68-2.73-2.39-2.62-2.83-1.69-8.08,1.91-9.63,5.46-2.35,10.82,3.01,8.13,8.45-.98,1.98-3.79,2.32-3.79,4.21v9.72c16.64-1.35,34.75,3.83,35.66,23.43.73,1.07,5.74-.85,6.66,1.34s-.02,8.74.03,11.36c-.65,1.52-6.06.09-6.69,1.01-.84,23.96-24.96,25.97-43.75,24.41,0,0-20.9,10.79-20.9,10.79,0,0-1.1.02-1.1.02-.71-.71,3.32-11.73,3.48-13.54-7.48-5.05-12.59-12.73-12.79-21.94-1.3-.29-6.05.48-6.71-.57-.73-2.22-.47-9.31-.15-11.33.79-2.44,6.02-.5,6.76-1.56.46-20.19,19.25-24.49,35.98-23.38v-10.4ZM64.32,58.8c.12-7.92-12.32-7.92-12.21,0-.12,7.92,12.32,7.92,12.21,0ZM91.15,59.02c.11-7.84-12.21-7.84-12.09,0-.11,7.84,12.21,7.84,12.09,0Z"/>
    <circle class="cls-2" cx="58.21" cy="58.8" r="6.1"/>
    <circle class="cls-2" cx="85.1" cy="59.02" r="6.05"/>
  </g>
</svg>